# This file uses centimeters as units for non-parametric coordinates.

mtllib Prop_Mug_model_Blockout.mtl
g default
v 4.045598 -0.050322 -0.938864
v 2.527702 -0.050322 -2.559314
v 0.274662 -0.050322 -2.990067
v -1.221654 -0.050322 -1.829477
v -1.646726 -0.050322 -0.938864
v -1.646726 -0.050322 1.035643
v -0.559588 -0.050322 2.633053
v 1.199436 -0.050322 3.243208
v 2.958460 -0.050322 2.633053
v 4.045598 -0.050322 1.035643
v 4.045598 6.309850 -0.938864
v 2.527702 6.309850 -2.559314
v 0.274662 6.309850 -2.990067
v -1.221654 6.309850 -1.829477
v -1.646726 6.309850 -0.938864
v -1.646726 6.309850 1.035643
v -0.559588 6.309850 2.633053
v 1.199436 6.309850 3.243208
v 2.958460 6.309850 2.633053
v 4.045598 6.309850 1.035643
v 1.199436 -0.050322 0.048390
v -1.646726 4.516034 1.035643
v -1.692492 4.772289 -0.851323
v -1.267588 4.772286 -1.741611
v 0.274662 4.516034 -2.990067
v 2.527702 4.516034 -2.559314
v 4.045598 4.516034 -0.938864
v 4.045598 4.516034 1.035643
v 2.958460 4.516034 2.633053
v 1.199436 4.516034 3.243208
v -0.559588 4.516034 2.633053
v -1.646726 5.392697 1.035643
v -1.694431 5.391904 -0.847614
v -1.269534 5.391901 -1.737890
v 0.274662 5.392697 -2.990067
v 2.527702 5.392697 -2.559314
v 4.045598 5.392697 -0.938864
v 4.045598 5.392697 1.035643
v 2.958460 5.392697 2.633053
v 1.199436 5.392697 3.243208
v -0.559588 5.392697 2.633053
v -1.682853 1.691710 -0.869754
v -1.257916 1.691708 -1.760115
v 0.274662 1.908352 -2.990067
v 2.527702 1.908352 -2.559314
v 4.045598 1.908352 -0.938864
v 4.045598 1.908352 1.035643
v 2.958460 1.908352 2.633053
v 1.199436 1.908352 3.243208
v -0.559588 1.908352 2.633053
v -1.646726 1.908352 1.035643
v -1.680804 1.036616 -0.873679
v -1.255858 1.036614 -1.764048
v 0.274662 1.037182 -2.990067
v 2.527702 1.037182 -2.559314
v 4.045598 1.037182 -0.938864
v 4.045598 1.037182 1.035643
v 2.958460 1.037182 2.633053
v 1.199436 1.037182 3.243208
v -0.559588 1.037182 2.633053
v -1.646726 1.037182 1.035643
v -3.460002 4.772907 -1.904181
v -3.034962 4.772907 -2.794733
v -3.461943 5.392522 -1.900476
v -3.036907 5.392522 -2.791012
v -3.448316 1.037234 -1.926537
v -3.023234 1.037234 -2.817174
v -3.450367 1.692329 -1.922616
v -3.025293 1.692329 -2.813237
v -4.095263 4.516127 -2.284607
v -3.670170 4.516127 -3.175260
v -3.946859 5.040070 -2.192382
v -3.521945 5.040067 -3.082690
v -3.863435 1.369269 -2.171627
v -3.438563 1.369266 -3.061866
v -4.087105 1.908581 -2.300210
v -3.661981 1.908583 -3.190921
v -3.556003 3.212652 -1.973421
v -3.130826 3.212653 -2.864229
v -3.766841 3.212877 -3.243208
v -4.192067 3.212874 -2.352307
v -2.565735 1.412352 -1.397861
v -2.563686 0.757259 -1.401781
v -2.138669 0.757257 -2.292293
v -2.140726 1.412352 -2.288356
v -2.577252 5.093622 -1.375831
v -2.152282 5.093621 -2.266245
v -2.154229 5.713236 -2.262523
v -2.579191 5.713238 -1.372122
v 3.804078 6.309850 -0.855089
v 2.414987 6.309850 -2.338030
v 0.353137 6.309850 -2.732229
v -1.016204 6.309850 -1.670125
v -1.405205 6.309850 -0.855089
v -1.405205 6.309850 0.951868
v -0.410320 6.309850 2.413723
v 1.199436 6.309850 2.972103
v 2.809192 6.309850 2.413723
v 3.804078 6.309850 0.951868
v 3.804078 1.796878 -0.855089
v 1.199436 1.796878 0.048390
v 2.414987 1.796878 -2.338030
v 0.353137 1.796878 -2.732229
v -1.016204 1.796878 -1.670125
v -1.405205 1.796878 -0.855089
v -1.405205 1.796878 0.951868
v -0.410320 1.796878 2.413723
v 1.199436 1.796878 2.972103
v 2.809192 1.796878 2.413723
v 3.804078 1.796878 0.951868
v -1.210705 1.796878 -1.262607
v -1.210705 6.309850 -1.262607
v -1.434190 6.309850 -1.384171
v -1.582222 5.499382 -1.339298
v -2.467400 5.838533 -1.863868
v -3.349724 5.502350 -2.392290
v -3.834255 5.132263 -2.684082
v -3.981888 4.581357 -2.776479
v -4.076920 3.210676 -2.844304
v -3.970295 1.838635 -2.792112
v -3.746037 1.271071 -2.663292
v -3.330364 0.921281 -2.418401
v -2.445370 0.625633 -1.893583
v -1.562861 0.918313 -1.365409
v -1.434190 -0.050322 -1.384171
vt 0.648603 0.107966
vt 0.548284 0.007647
vt 0.451716 0.007647
vt 0.373591 0.064409
vt 0.351397 0.107966
vt 0.351397 0.204534
vt 0.408159 0.282659
vt 0.500000 0.312500
vt 0.591841 0.282659
vt 0.648603 0.204534
vt 0.375000 0.312500
vt 0.412500 0.312500
vt 0.437500 0.312500
vt 0.462500 0.312500
vt 0.475000 0.312500
vt 0.500000 0.312500
vt 0.525000 0.312500
vt 0.550000 0.312500
vt 0.575000 0.312500
vt 0.600000 0.312500
vt 0.625000 0.312500
vt 0.375000 0.688440
vt 0.412500 0.688440
vt 0.437500 0.688440
vt 0.462500 0.688440
vt 0.475000 0.688440
vt 0.500000 0.688440
vt 0.525000 0.688440
vt 0.550000 0.688440
vt 0.575000 0.688440
vt 0.600000 0.688440
vt 0.625000 0.688440
vt 0.648603 0.795466
vt 0.591842 0.717341
vt 0.500000 0.687500
vt 0.408159 0.717341
vt 0.351397 0.795466
vt 0.351397 0.892034
vt 0.373591 0.935591
vt 0.451716 0.992353
vt 0.548284 0.992353
vt 0.648603 0.892034
vt 0.500000 0.150000
vt 0.500000 0.837500
vt 0.500000 0.500470
vt 0.475000 0.500470
vt 0.462500 0.500470
vt 0.437500 0.500470
vt 0.412500 0.500470
vt 0.625000 0.500470
vt 0.375000 0.500470
vt 0.600000 0.500470
vt 0.575000 0.500470
vt 0.550000 0.500470
vt 0.525000 0.500470
vt 0.500000 0.594455
vt 0.475000 0.594455
vt 0.462500 0.594455
vt 0.437500 0.594455
vt 0.412500 0.594455
vt 0.625000 0.594455
vt 0.375000 0.594455
vt 0.600000 0.594455
vt 0.575000 0.594455
vt 0.550000 0.594455
vt 0.525000 0.594455
vt 0.475000 0.406485
vt 0.462500 0.406485
vt 0.437500 0.406485
vt 0.412500 0.406485
vt 0.625000 0.406485
vt 0.375000 0.406485
vt 0.600000 0.406485
vt 0.575000 0.406485
vt 0.550000 0.406485
vt 0.525000 0.406485
vt 0.500000 0.406485
vt 0.475000 0.359492
vt 0.462500 0.359492
vt 0.437500 0.359492
vt 0.412500 0.359492
vt 0.625000 0.359492
vt 0.375000 0.359492
vt 0.600000 0.359492
vt 0.575000 0.359492
vt 0.550000 0.359492
vt 0.525000 0.359492
vt 0.500000 0.359492
vt 0.462500 0.500470
vt 0.475000 0.500470
vt 0.475000 0.594455
vt 0.462500 0.594455
vt 0.462500 0.359492
vt 0.475000 0.359492
vt 0.475000 0.406485
vt 0.462500 0.406485
vt 0.462500 0.500470
vt 0.475000 0.500470
vt 0.475000 0.594455
vt 0.462500 0.594455
vt 0.462500 0.359492
vt 0.475000 0.359492
vt 0.475000 0.406485
vt 0.462500 0.406485
vt 0.000000 0.000000
vt 1.000000 0.000000
vt 1.000000 1.000000
vt 0.000000 1.000000
vt 0.000000 0.000000
vt 1.000000 0.000000
vt 1.000000 1.000000
vt 0.000000 1.000000
vt 0.000000 0.000000
vt 1.000000 0.000000
vt 1.000000 1.000000
vt 0.000000 1.000000
vt 0.000000 0.000000
vt 1.000000 0.000000
vt 1.000000 1.000000
vt 0.000000 1.000000
vt 1.000000 0.500000
vt 0.000000 0.500000
vt 1.000000 0.500000
vt 0.000000 0.500000
vt 1.000000 0.500000
vt 0.000000 0.500000
vt 1.000000 0.500000
vt 0.000000 0.500000
vt 0.475000 0.406485
vt 0.475000 0.359492
vt 0.462500 0.359492
vt 0.462500 0.406485
vt 0.475000 0.500470
vt 0.462500 0.500470
vt 0.462500 0.594455
vt 0.475000 0.594455
vt 0.648603 0.892034
vt 0.548284 0.992353
vt 0.451716 0.992353
vt 0.373591 0.935591
vt 0.351397 0.892034
vt 0.351397 0.795466
vt 0.408159 0.717341
vt 0.500000 0.687500
vt 0.591842 0.717341
vt 0.648603 0.795466
vt 0.648603 0.892034
vt 0.548284 0.992353
vt 0.451716 0.992353
vt 0.373591 0.935591
vt 0.351397 0.892034
vt 0.351397 0.795466
vt 0.408159 0.717341
vt 0.500000 0.687500
vt 0.591842 0.717341
vt 0.648603 0.795466
vt 0.362494 0.913813
vt 0.362494 0.913813
vt 0.362494 0.913813
vt 0.468750 0.688440
vt 0.468750 0.594455
vt 0.468750 0.594455
vt 0.468750 0.594455
vt 0.468750 0.594455
vt 0.500000 0.000000
vt 0.468750 0.500470
vt 0.500000 0.500000
vt 0.468750 0.406485
vt 0.500000 1.000000
vt 0.468750 0.359492
vt 0.468750 0.359492
vt 0.468750 0.359492
vt 0.468750 0.359492
vt 0.468750 0.312500
vt 0.362494 0.086187
vn 0.477833 0.000000 -0.878450
vn 0.921247 0.000000 -0.388977
vn 0.921247 0.000000 -0.388977
vn 0.477833 0.000000 -0.878450
vn -0.188992 0.004191 -0.981970
vn -0.198372 0.006964 -0.980102
vn -0.653219 0.001938 -0.757167
vn -0.666746 0.003115 -0.745278
vn -0.898193 -0.053288 -0.436360
vn -0.997760 -0.025715 -0.061754
vn -0.999631 -0.015537 -0.022287
vn -0.903803 -0.054217 -0.424500
vn -0.954577 -0.008345 0.297847
vn -0.951072 -0.005066 0.308928
vn -0.612882 0.000000 0.790174
vn -0.612882 0.000000 0.790174
vn 0.000000 0.000000 1.000000
vn 0.000000 0.000000 1.000000
vn 0.612882 0.000000 0.790174
vn 0.612882 0.000000 0.790174
vn 0.956671 0.000000 0.291170
vn 0.956671 0.000000 0.291170
vn 0.000000 -1.000000 -0.000000
vn 0.000000 -1.000000 -0.000000
vn 0.000000 -1.000000 -0.000000
vn 0.000000 -1.000000 -0.000000
vn 0.000000 -1.000000 -0.000000
vn 0.000000 -1.000000 0.000000
vn 0.000000 -1.000000 0.000000
vn 0.000000 -1.000000 0.000000
vn 0.000000 -1.000000 0.000000
vn 0.000000 -1.000000 0.000000
vn 0.000000 -1.000000 0.000000
vn 0.000000 -1.000000 0.000000
vn -0.000000 1.000000 0.000000
vn -0.000000 1.000000 0.000000
vn -0.000000 1.000000 0.000000
vn 0.000000 1.000000 0.000000
vn 0.000000 1.000000 0.000000
vn 0.000000 1.000000 0.000000
vn 0.000000 1.000000 0.000000
vn 0.000000 1.000000 -0.000000
vn 0.000000 1.000000 -0.000000
vn 0.000000 1.000000 -0.000000
vn -0.000000 1.000000 -0.000000
vn -0.000000 1.000000 0.000000
vn -0.949058 0.007094 0.315021
vn -0.999683 0.021052 -0.013799
vn -0.992296 -0.001249 -0.123887
vn -0.954697 -0.000904 0.297578
vn -0.857382 0.307123 -0.413003
vn -0.942151 0.288731 -0.170251
vn -0.942151 0.288731 -0.170251
vn -0.860426 0.306894 -0.406796
vn -0.655584 -0.003694 -0.755113
vn -0.189122 -0.005824 -0.981936
vn -0.224389 0.000740 -0.974499
vn -0.728428 0.000898 -0.685122
vn 0.477833 0.000000 -0.878450
vn 0.477833 0.000000 -0.878450
vn 0.921247 0.000000 -0.388977
vn 0.921247 0.000000 -0.388977
vn 0.956671 0.000000 0.291170
vn 0.956671 0.000000 0.291170
vn 0.612882 0.000000 0.790174
vn 0.612882 0.000000 0.790174
vn 0.000000 0.000000 1.000000
vn 0.000000 0.000000 1.000000
vn -0.612882 0.000000 0.790174
vn -0.612882 0.000000 0.790174
vn -0.997379 0.039147 -0.060844
vn -0.953711 0.013885 0.300403
vn -0.904995 0.069425 -0.419720
vn -0.895162 0.066655 -0.440729
vn -0.201427 -0.011527 -0.979436
vn -0.665425 -0.009799 -0.746401
vn 0.477834 0.000000 -0.878450
vn 0.921247 0.000000 -0.388978
vn 0.956671 0.000000 0.291170
vn 0.612882 0.000000 0.790174
vn 0.000000 0.000000 1.000000
vn -0.612882 0.000000 0.790174
vn -0.992151 -0.001253 -0.125039
vn -0.954918 -0.000906 0.296868
vn -0.726300 0.000916 -0.687378
vn -0.223459 0.000744 -0.974713
vn 0.477833 0.000000 -0.878450
vn 0.921247 0.000000 -0.388978
vn 0.956671 0.000000 0.291170
vn 0.612882 0.000000 0.790174
vn 0.000000 0.000000 1.000000
vn -0.612882 0.000000 0.790174
vn -0.819002 -0.421917 -0.388873
vn -0.904552 -0.400230 -0.146971
vn -0.904553 -0.400230 -0.146971
vn -0.817374 -0.422025 -0.392166
vn -0.270115 -0.954159 -0.128915
vn -0.270115 -0.954158 -0.128915
vn -0.006851 -0.999971 -0.003267
vn 0.006353 -0.999975 0.003035
vn -0.511750 -0.006744 0.859108
vn -0.511750 -0.006744 0.859108
vn -0.511751 -0.006743 0.859108
vn -0.511751 -0.006743 0.859108
vn 0.193662 0.943888 0.267525
vn 0.275247 0.951860 0.134910
vn -0.041737 0.998972 -0.017683
vn -0.069707 0.973984 0.215629
vn 0.511874 0.006767 -0.859034
vn 0.511874 0.006767 -0.859034
vn 0.511874 0.006767 -0.859034
vn 0.511874 0.006767 -0.859034
vn 0.240657 -0.963233 0.119445
vn 0.142932 -0.950508 0.275871
vn -0.087074 -0.970527 0.224713
vn -0.035652 -0.999238 -0.015893
vn -0.511750 -0.006745 0.859108
vn -0.511750 -0.006745 0.859108
vn -0.511750 -0.006744 0.859108
vn -0.511750 -0.006744 0.859108
vn -0.237471 0.964760 -0.113339
vn -0.237471 0.964760 -0.113339
vn 0.006101 0.999977 0.002912
vn -0.005483 0.999982 -0.002617
vn 0.511874 0.006767 -0.859034
vn 0.511874 0.006767 -0.859034
vn 0.511874 0.006769 -0.859034
vn 0.511874 0.006769 -0.859034
vn -0.511866 -0.006628 0.859039
vn -0.511818 -0.006676 0.859068
vn -0.512019 -0.006477 0.858950
vn -0.512019 -0.006477 0.858950
vn -0.478212 0.873534 0.090838
vn -0.368383 0.912462 -0.178064
vn -0.483474 0.841999 -0.239355
vn -0.606840 0.794447 0.024468
vn 0.511846 0.006794 -0.859050
vn 0.511826 0.006813 -0.859062
vn 0.511763 0.006876 -0.859099
vn 0.511763 0.006876 -0.859099
vn -0.357944 -0.917451 -0.173667
vn -0.466092 -0.878928 0.101212
vn -0.639390 -0.768748 0.014385
vn -0.519467 -0.815726 -0.254450
vn -0.511842 -0.006834 0.859052
vn -0.511910 -0.006902 0.859011
vn -0.512158 -0.007146 0.858862
vn -0.512158 -0.007146 0.858861
vn 0.511808 0.006703 -0.859074
vn 0.511836 0.006732 -0.859057
vn 0.511706 0.006601 -0.859135
vn 0.511706 0.006601 -0.859135
vn 0.899973 -0.074432 0.429544
vn 0.899973 -0.074432 0.429544
vn 0.902477 -0.000144 0.430739
vn 0.902476 0.000640 0.430739
vn -0.511768 -0.006626 0.859098
vn -0.511768 -0.006626 0.859098
vn -0.511766 -0.006742 0.859098
vn -0.511766 -0.006742 0.859098
vn 0.511866 0.006816 -0.859038
vn 0.511866 0.006816 -0.859038
vn 0.511867 0.006767 -0.859038
vn 0.511867 0.006767 -0.859038
vn -0.972006 0.080915 -0.220583
vn -0.899834 0.086239 -0.427623
vn -0.902212 -0.000984 -0.431292
vn -0.974955 -0.001739 -0.222397
vn 0.899806 0.076868 0.429465
vn 0.899806 0.076868 0.429465
vn 0.511868 0.006717 -0.859038
vn 0.511868 0.006717 -0.859038
vn -0.898652 -0.087800 -0.429785
vn -0.971139 -0.085454 -0.222682
vn -0.511765 -0.006859 0.859098
vn -0.511765 -0.006859 0.859098
vn 0.237932 0.964621 0.113559
vn 0.237932 0.964621 0.113559
vn 0.269677 -0.954310 0.128711
vn 0.269677 -0.954310 0.128711
vn 0.000000 1.000000 0.000001
vn 0.000000 1.000000 0.000001
vn 0.000000 1.000000 0.000001
vn 0.000000 1.000000 0.000001
vn 0.000000 1.000000 -0.000001
vn 0.000000 1.000000 -0.000001
vn 0.000000 1.000000 -0.000001
vn 0.000000 1.000000 -0.000001
vn 0.000000 1.000000 0.000000
vn 0.000000 1.000000 0.000000
vn 0.000000 1.000000 0.000000
vn 0.000000 1.000000 0.000000
vn 0.000000 1.000000 0.000000
vn 0.000000 1.000000 0.000000
vn 0.000000 1.000000 0.000000
vn 0.000000 1.000000 0.000000
vn 0.000000 1.000000 0.000000
vn 0.000000 1.000000 0.000000
vn 0.000000 1.000000 0.000000
vn 0.000000 1.000000 0.000000
vn 0.000000 1.000000 0.000000
vn 0.000000 1.000000 0.000000
vn 0.000000 1.000000 0.000000
vn 0.000000 1.000000 0.000000
vn 0.000000 1.000000 0.000001
vn 0.000000 1.000000 0.000001
vn 0.000000 1.000000 0.000001
vn 0.000000 1.000000 0.000001
vn 0.000000 1.000000 0.000001
vn 0.000000 1.000000 0.000001
vn 0.000000 1.000000 0.000001
vn 0.000000 1.000000 0.000001
vn 0.000000 1.000000 0.000000
vn 0.000000 1.000000 0.000000
vn 0.000000 1.000000 0.000000
vn 0.000000 1.000000 0.000000
vn 0.000000 1.000000 0.000000
vn 0.000000 1.000000 0.000000
vn 0.000000 1.000000 0.000000
vn 0.000000 1.000000 0.000000
vn -0.921247 0.000000 0.388977
vn -0.921247 0.000000 0.388977
vn -0.477833 0.000000 0.878450
vn -0.477833 0.000000 0.878450
vn 0.191071 0.000000 0.981576
vn 0.191071 0.000000 0.981576
vn 0.684814 0.000000 0.728718
vn 0.684814 0.000000 0.728718
vn 0.902478 0.000000 0.430736
vn 0.996165 0.000000 0.087495
vn 0.996165 0.000000 0.087495
vn 0.902478 0.000000 0.430736
vn 0.956672 0.000000 -0.291170
vn 0.956672 0.000000 -0.291170
vn 0.612882 0.000000 -0.790174
vn 0.612882 0.000000 -0.790174
vn 0.000000 0.000000 -1.000000
vn 0.000000 0.000000 -1.000000
vn -0.612882 0.000000 -0.790174
vn -0.612882 0.000000 -0.790174
vn -0.956672 0.000000 -0.291170
vn -0.956672 0.000000 -0.291170
vn 0.000000 1.000000 0.000001
vn 0.000000 1.000000 0.000001
vn 0.349304 0.937009 0.000626
vn 0.144043 0.974389 -0.172679
vn -0.196752 0.892642 -0.405559
vn -0.330361 0.820308 -0.466858
vn -0.719693 0.305399 -0.623517
vn -0.719693 0.305399 -0.623517
vn -0.782315 0.087401 -0.616721
vn -0.785934 0.000499 -0.618311
vn -0.783633 -0.085941 -0.615251
vn -0.675580 -0.415182 -0.609274
vn -0.675580 -0.415182 -0.609274
vn -0.180658 -0.895706 -0.406293
vn -0.361026 -0.792714 -0.491187
vn 0.145946 -0.970749 -0.190645
vn 0.330302 -0.942969 -0.041342
s 1
g Mug
usemtl initialShadingGroup
f 55/81/1 56/83/2 1/11/3 2/12/4
f 54/80/5 55/81/1 2/12/4 3/13/6
f 53/79/7 54/80/5 3/13/6 4/14/8
f 125/174/9 5/15/10 52/78/11 124/173/12
f 52/78/11 5/15/10 6/16/13 61/88/14
f 60/87/15 61/88/14 6/16/13 7/17/16
f 59/86/17 60/87/15 7/17/16 8/18/18
f 58/85/19 59/86/17 8/18/18 9/19/20
f 57/84/21 58/85/19 9/19/20 10/20/22
f 56/82/2 57/84/21 10/20/22 1/21/3
s 3
f 2/2/23 1/1/24 21/43/25
f 3/3/26 2/2/23 21/43/25
f 4/4/27 3/3/26 21/43/25
f 5/5/28 125/175/29 4/4/27 21/43/25
f 6/6/30 5/5/28 21/43/25
f 7/7/31 6/6/30 21/43/25
f 8/8/32 7/7/31 21/43/25
f 9/9/33 8/8/32 21/43/25
f 10/10/34 9/9/33 21/43/25
f 1/1/24 10/10/34 21/43/25
s 4
f 101/44/35 100/147/36 102/148/37
f 101/44/35 102/148/37 103/149/38
f 101/44/35 103/149/38 104/150/39
f 104/150/39 111/157/40 105/151/41 101/44/35
f 101/44/35 105/151/41 106/152/42
f 101/44/35 106/152/42 107/153/43
f 101/44/35 107/153/43 108/154/44
f 101/44/35 108/154/44 109/155/45
f 101/44/35 109/155/45 110/156/46
f 101/44/35 110/156/46 100/147/36
s 1
f 32/56/47 33/57/48 23/46/49 22/45/50
s 6
f 118/166/51 70/98/52 72/99/53 117/164/54
s 1
f 34/58/55 35/59/56 25/48/57 24/47/58
f 35/59/56 36/60/59 26/49/60 25/48/57
f 36/60/59 37/62/61 27/51/62 26/49/60
f 37/61/61 38/63/63 28/52/64 27/50/62
f 38/63/63 39/64/65 29/53/66 28/52/64
f 39/64/65 40/65/67 30/54/68 29/53/66
f 40/65/67 41/66/69 31/55/70 30/54/68
f 41/66/69 32/56/47 22/45/50 31/55/70
f 15/26/71 33/57/48 32/56/47 16/27/72
f 114/161/73 33/57/48 15/26/71 113/160/74
f 13/24/75 35/59/56 34/58/55 14/25/76
f 12/23/77 36/60/59 35/59/56 13/24/75
f 11/22/78 37/62/61 36/60/59 12/23/77
f 20/31/79 38/63/63 37/61/61 11/32/78
f 19/30/80 39/64/65 38/63/63 20/31/79
f 18/29/81 40/65/67 39/64/65 19/30/80
f 17/28/82 41/66/69 40/65/67 18/29/81
f 16/27/72 32/56/47 41/66/69 17/28/82
f 22/45/50 23/46/49 42/67/83 51/77/84
f 43/68/85 42/67/83 23/46/49 24/47/58
f 24/47/58 25/48/57 44/69/86 43/68/85
f 25/48/57 26/49/60 45/70/87 44/69/86
f 26/49/60 27/51/62 46/72/88 45/70/87
f 27/50/62 28/52/64 47/73/89 46/71/88
f 28/52/64 29/53/66 48/74/90 47/73/89
f 29/53/66 30/54/68 49/75/91 48/74/90
f 30/54/68 31/55/70 50/76/92 49/75/91
f 31/55/70 22/45/50 51/77/84 50/76/92
f 51/77/84 42/67/83 52/78/11 61/88/14
s 8
f 121/170/93 74/102/94 76/103/95 120/168/96
s 1
f 43/68/85 44/69/86 54/80/5 53/79/7
f 44/69/86 45/70/87 55/81/1 54/80/5
f 45/70/87 46/72/88 56/83/2 55/81/1
f 46/71/88 47/73/89 57/84/21 56/82/2
f 47/73/89 48/74/90 58/85/19 57/84/21
f 48/74/90 49/75/91 59/86/17 58/85/19
f 49/75/91 50/76/92 60/87/15 59/86/17
f 50/76/92 51/77/84 61/88/14 60/87/15
s 9
f 24/47/97 23/46/98 86/133/99 87/134/100
s 10
f 23/46/101 33/57/102 89/136/103 86/133/104
s 11
f 33/57/105 114/161/106 115/162/107 89/136/108
s 12
f 34/58/109 24/47/110 87/134/111 88/135/112
s 13
f 124/173/113 52/78/114 83/130/115 123/172/116
s 14
f 52/78/117 42/67/118 82/129/119 83/130/120
s 15
f 42/67/121 43/68/122 85/132/123 82/129/124
s 16
f 43/68/125 53/79/126 84/131/127 85/132/128
s 10
f 62/90/129 64/91/130 72/99/131 70/98/132
s 11
f 64/91/133 116/163/134 117/164/135 72/99/136
s 12
f 65/92/137 63/89/138 71/97/139 73/100/140
s 13
f 122/171/141 66/94/142 74/102/143 121/170/144
s 14
f 66/94/145 68/95/146 76/103/147 74/102/148
s 16
f 69/96/149 67/93/150 75/101/151 77/104/152
s 17
f 63/105/153 62/106/154 78/121/155 79/124/156
s 18
f 62/109/157 70/110/158 81/127/159 78/122/160
s 19
f 71/113/161 63/114/162 79/123/163 80/126/164
s 20
f 70/117/165 118/165/166 119/167/167 81/128/168
s 17
f 79/124/156 78/121/155 68/107/169 69/108/170
s 19
f 80/126/164 79/123/163 69/115/171 77/116/172
s 20
f 81/128/168 119/167/167 120/169/173 76/120/174
s 18
f 78/122/160 81/127/159 76/111/175 68/112/176
s 14
f 83/130/120 82/129/119 68/95/146 66/94/145
s 13
f 123/172/116 83/130/115 66/94/142 122/171/141
s 16
f 85/132/128 84/131/127 67/93/150 69/96/149
s 15
f 82/129/124 85/132/123 69/96/177 68/95/178
s 9
f 87/134/100 86/133/99 62/90/179 63/89/180
s 12
f 88/135/112 87/134/111 63/89/138 65/92/137
s 11
f 89/136/108 115/162/107 116/163/134 64/91/133
s 10
f 86/133/104 89/136/103 64/91/130 62/90/129
s off
f 90/137/181 11/42/182 12/41/183 91/138/184
f 91/138/185 12/41/186 13/40/187 92/139/188
f 92/139/189 13/40/190 14/39/191 93/140/192
s 21
f 113/159/193 15/38/194 94/141/195 112/158/196
s off
f 94/141/197 15/38/198 16/37/199 95/142/200
f 95/142/201 16/37/202 17/36/203 96/143/204
f 96/143/205 17/36/206 18/35/207 97/144/208
f 97/144/209 18/35/210 19/34/211 98/145/212
f 98/145/213 19/34/214 20/33/215 99/146/216
f 99/146/217 20/33/218 11/42/219 90/137/220
s 22
f 100/147/221 90/137/222 91/138/223 102/148/224
f 102/148/224 91/138/223 92/139/225 103/149/226
f 103/149/226 92/139/225 93/140/227 104/150/228
f 112/158/229 94/141/230 105/151/231 111/157/232
f 105/151/231 94/141/230 95/142/233 106/152/234
f 106/152/234 95/142/233 96/143/235 107/153/236
f 107/153/236 96/143/235 97/144/237 108/154/238
f 108/154/238 97/144/237 98/145/239 109/155/240
f 109/155/240 98/145/239 99/146/241 110/156/242
f 110/156/242 99/146/241 90/137/222 100/147/221
f 93/140/227 112/158/229 111/157/232 104/150/228
s 21
f 14/39/243 113/159/193 112/158/196 93/140/244
s 1
f 34/58/55 114/161/73 113/160/74 14/25/76
s 11
f 115/162/107 114/161/106 34/58/245 88/135/246
f 116/163/134 115/162/107 88/135/246 65/92/247
f 117/164/135 116/163/134 65/92/247 73/100/248
s 6
f 71/97/249 118/166/51 117/164/54 73/100/250
s 20
f 119/167/167 118/165/166 71/118/251 80/125/252
f 120/169/173 119/167/167 80/125/252 77/119/253
s 8
f 75/101/254 121/170/93 120/168/96 77/104/255
s 13
f 67/93/256 122/171/141 121/170/144 75/101/257
f 84/131/258 123/172/116 122/171/141 67/93/256
f 53/79/259 124/173/113 123/172/116 84/131/258
s 1
f 4/14/8 125/174/9 124/173/12 53/79/7
