# This file uses centimeters as units for non-parametric coordinates.

mtllib Prop_Chair_model_Blockout.mtl
g default
v -24.455750 -0.137028 25.000000
v 24.455811 -0.137028 25.000000
v -24.455750 92.415642 -25.000000
v 24.455811 92.415642 -25.000000
v -24.455750 -0.137028 -25.000000
v 24.455811 -0.137028 -25.000000
v 24.455811 92.415642 -16.983253
v -24.455750 92.415642 -16.983253
v -24.455750 -0.137032 -16.983253
v 24.455811 -0.137032 -16.983253
v -24.455750 46.005451 -25.000000
v -24.455750 46.005451 -16.983253
v -24.455750 46.005451 25.000000
v 24.455811 46.005451 25.000000
v 24.455811 46.005451 -16.983253
v 24.455811 46.005451 -25.000000
vt 0.375000 0.000000
vt 0.625000 0.000000
vt 0.375000 0.500000
vt 0.625000 0.500000
vt 0.375000 0.750000
vt 0.625000 0.750000
vt 0.375000 1.000000
vt 0.625000 1.000000
vt 0.875000 0.000000
vt 0.875000 0.250000
vt 0.125000 0.000000
vt 0.125000 0.250000
vt 0.625000 0.459916
vt 0.834916 0.250000
vt 0.165084 0.250000
vt 0.375000 0.459916
vt 0.165084 0.000000
vt 0.375000 0.790084
vt 0.625000 0.790084
vt 0.834916 0.000000
vt 0.125000 0.128010
vt 0.375000 0.621990
vt 0.165084 0.128010
vt 0.375000 0.128010
vt 0.625000 0.128010
vt 0.834916 0.128010
vt 0.625000 0.621990
vt 0.875000 0.128010
vt 0.000000 0.000000
vt 0.731938 0.000000
vt 0.731938 1.000000
vt 0.000000 1.000000
vt 0.000000 0.000000
vt 1.000000 0.000000
vt 1.000000 0.952761
vt 0.000000 0.952761
vn 0.000000 0.000000 -1.000000
vn 0.000000 0.000000 -1.000000
vn 0.000000 0.000000 -1.000000
vn 0.000000 0.000000 -1.000000
vn 0.000000 -1.000000 0.000000
vn 0.000000 -1.000000 0.000000
vn 0.000000 -1.000000 0.000000
vn 0.000000 -1.000000 0.000000
vn 0.000000 1.000000 0.000000
vn 0.000000 1.000000 0.000000
vn 0.000000 1.000000 0.000000
vn 0.000000 1.000000 0.000000
vn -1.000000 0.000000 0.000000
vn -1.000000 0.000000 0.000000
vn -1.000000 0.000000 0.000000
vn -1.000000 0.000000 0.000000
vn 0.000000 -1.000000 -0.000000
vn 0.000000 -1.000000 -0.000000
vn 0.000000 -1.000000 -0.000000
vn 0.000000 -1.000000 -0.000000
vn 1.000000 0.000000 0.000000
vn 1.000000 0.000000 0.000000
vn 1.000000 0.000000 0.000000
vn 1.000000 0.000000 0.000000
vn -1.000000 0.000000 0.000000
vn -1.000000 0.000000 0.000000
vn -1.000000 0.000000 0.000000
vn -1.000000 0.000000 0.000000
vn -1.000000 0.000000 0.000000
vn -1.000000 0.000000 0.000000
vn 0.000000 0.000000 1.000000
vn 0.000000 0.000000 1.000000
vn 0.000000 0.000000 1.000000
vn 0.000000 0.000000 1.000000
vn 1.000000 0.000000 0.000000
vn 1.000000 0.000000 0.000000
vn 1.000000 0.000000 0.000000
vn 1.000000 0.000000 0.000000
vn 0.000000 0.000000 -1.000000
vn 0.000000 0.000000 -1.000000
vn 0.000000 0.000000 -1.000000
vn 0.000000 0.000000 -1.000000
vn 0.000000 0.000000 1.000000
vn 0.000000 0.000000 1.000000
vn 0.000000 0.000000 1.000000
vn 0.000000 0.000000 1.000000
vn 0.000000 1.000000 0.000000
vn 0.000000 1.000000 0.000000
vn 0.000000 1.000000 0.000000
vn 0.000000 1.000000 0.000000
s off
g Chair
usemtl initialShadingGroup
f 3/3/1 4/4/2 16/27/3 11/22/4
f 9/18/5 10/19/6 2/8/7 1/7/8
f 8/16/9 7/13/10 4/4/11 3/3/12
f 11/21/13 12/23/14 8/15/15 3/12/16
f 5/5/17 6/6/18 10/19/19 9/18/20
s 1
f 7/14/21 15/26/22 16/28/23 4/10/24
s 2
f 5/11/25 9/17/26 12/23/27 11/21/28
f 9/17/26 1/1/29 13/24/30 12/23/27
s off
f 1/1/31 2/2/32 14/25/33 13/24/34
s 1
f 2/2/35 10/20/36 15/26/22 14/25/37
f 16/28/23 15/26/22 10/20/36 6/9/38
s off
f 11/22/39 16/27/40 6/6/41 5/5/42
f 8/29/43 12/30/44 15/31/45 7/32/46
f 12/33/47 13/34/48 14/35/49 15/36/50
