# This file uses centimeters as units for non-parametric coordinates.

mtllib Prop_Dinertable_model_Blockout.mtl
g default
v -72.253906 -0.000002 101.997864
v 72.253906 -0.000002 101.997864
v -72.253906 75.726952 101.997864
v 72.253906 75.726952 101.997864
v -72.253906 75.726952 -101.997864
v 72.253906 75.726952 -101.997864
v -72.253906 -0.000002 -101.997864
v 72.253906 -0.000002 -101.997864
v -72.253906 75.726959 -88.633591
v -72.253906 0.000000 -88.633591
v 72.253906 0.000000 -88.633591
v 72.253906 75.726959 -88.633591
v -72.253906 64.318939 101.997864
v -72.253906 64.318939 -88.633591
v -72.253906 64.318939 -101.997864
v 72.253906 64.318939 -101.997864
v 72.253906 64.318939 -88.633591
v 72.253906 64.318939 101.997864
v -72.253906 64.318939 89.561081
v -72.253906 -0.000002 89.561081
v 72.253906 -0.000002 89.561081
v 72.253906 64.318939 89.561081
v 72.253906 75.726952 89.561081
v -72.253906 75.726952 89.561081
v -58.862030 75.726952 89.561081
v -58.862030 75.726952 101.997864
v -58.862030 64.318939 101.997864
v -58.862030 -0.000002 101.997864
v -58.862030 -0.000002 89.561081
v -58.862030 -0.000002 -88.633606
v -58.862030 -0.000002 -101.997864
v -58.862030 64.318939 -101.997864
v -58.862030 75.726952 -101.997864
v -58.862030 75.726959 -88.633591
v 59.062012 75.726959 89.561081
v 59.062012 75.726959 101.997864
v 59.062012 64.318939 101.997864
v 59.062012 -0.000002 101.997864
v 59.062012 -0.000002 89.561081
v 59.062012 -0.000002 -88.633606
v 59.062012 -0.000002 -101.997864
v 59.062012 64.318939 -101.997864
v 59.062012 75.726959 -101.997864
v 59.062012 75.726959 -88.633606
v -58.862030 64.318939 -88.633591
v -58.862030 64.318939 89.561081
v 59.062012 64.318939 89.561081
v 59.062012 64.318939 -88.633591
vt 0.375000 0.000000
vt 0.625000 0.000000
vt 0.375000 0.250000
vt 0.625000 0.250000
vt 0.375000 0.500000
vt 0.625000 0.500000
vt 0.375000 0.750000
vt 0.625000 0.750000
vt 0.375000 1.000000
vt 0.625000 1.000000
vt 0.875000 0.000000
vt 0.875000 0.250000
vt 0.125000 0.000000
vt 0.125000 0.250000
vt 0.141378 0.250000
vt 0.375000 0.483622
vt 0.141378 0.000000
vt 0.375000 0.766378
vt 0.625000 0.766378
vt 0.858622 0.000000
vt 0.625000 0.483622
vt 0.858622 0.250000
vt 0.375000 0.212282
vt 0.141378 0.212282
vt 0.125000 0.212282
vt 0.375000 0.537718
vt 0.625000 0.537718
vt 0.875000 0.212282
vt 0.858622 0.212282
vt 0.625000 0.212282
vt 0.359758 0.212282
vt 0.359758 0.000000
vt 0.375000 0.984758
vt 0.625000 0.984758
vt 0.640241 0.000000
vt 0.640241 0.212282
vt 0.625000 0.265241
vt 0.640241 0.250000
vt 0.359758 0.250000
vt 0.375000 0.265241
vt 0.398168 0.265241
vt 0.398168 0.250000
vt 0.398168 0.212282
vt 0.398168 0.000000
vt 0.398168 1.000000
vt 0.398168 0.984758
vt 0.398168 0.766378
vt 0.398168 0.750000
vt 0.398168 0.537718
vt 0.398168 0.500000
vt 0.398168 0.483622
vt 0.602178 0.265241
vt 0.602178 0.250000
vt 0.602178 0.212282
vt 0.602178 0.000000
vt 0.602178 1.000000
vt 0.602178 0.984758
vt 0.602178 0.766378
vt 0.602178 0.750000
vt 0.602178 0.537718
vt 0.602178 0.500000
vt 0.602178 0.483622
vt 0.000000 0.000000
vt 1.000000 0.000000
vt 1.000000 1.000000
vt 0.000000 1.000000
vt 0.000000 0.000000
vt 1.000000 0.000000
vt 1.000000 1.000000
vt 0.000000 1.000000
vt 0.000000 0.000000
vt 1.000000 0.000000
vt 1.000000 1.000000
vt 0.000000 1.000000
vt 0.000000 0.000000
vt 1.000000 0.000000
vt 1.000000 1.000000
vt 0.000000 1.000000
vt 0.000000 0.000000
vt 1.000000 0.000000
vt 1.000000 1.000000
vt 0.000000 1.000000
vt 0.000000 0.000000
vt 1.000000 0.000000
vt 1.000000 1.000000
vt 0.000000 1.000000
vt 0.000000 0.000000
vt 1.000000 0.000000
vt 1.000000 1.000000
vt 0.000000 1.000000
vt 0.000000 0.000000
vt 1.000000 0.000000
vt 1.000000 1.000000
vt 0.000000 1.000000
vt 0.000000 0.000000
vt 1.000000 0.000000
vt 1.000000 1.000000
vt 0.000000 1.000000
vt 0.000000 0.000000
vt 1.000000 0.000000
vt 1.000000 1.000000
vt 0.000000 1.000000
vt 0.000000 0.000000
vt 1.000000 0.000000
vt 1.000000 1.000000
vt 0.000000 1.000000
vt 0.000000 0.000000
vt 1.000000 0.000000
vt 1.000000 1.000000
vt 0.000000 1.000000
vt 0.000000 0.000000
vt 1.000000 0.000000
vt 1.000000 1.000000
vt 0.000000 1.000000
vn 0.000000 0.000000 1.000000
vn 0.000000 0.000000 1.000000
vn 0.000000 0.000000 1.000000
vn 0.000000 0.000000 1.000000
vn 0.000000 1.000000 0.000000
vn 0.000001 1.000000 0.000000
vn 0.000000 1.000000 0.000000
vn -0.000000 1.000000 0.000000
vn 0.000000 0.000000 -1.000000
vn 0.000000 0.000000 -1.000000
vn 0.000000 0.000000 -1.000000
vn 0.000000 0.000000 -1.000000
vn 0.000000 -1.000000 0.000000
vn 0.000000 -1.000000 0.000000
vn 0.000000 -1.000000 0.000000
vn 0.000000 -1.000000 0.000000
vn 1.000000 0.000000 0.000000
vn 1.000000 0.000000 0.000000
vn 1.000000 0.000000 0.000000
vn 1.000000 0.000000 0.000000
vn -1.000000 0.000000 0.000000
vn -1.000000 0.000000 0.000000
vn -1.000000 0.000000 0.000000
vn -1.000000 0.000000 0.000000
vn -1.000000 0.000000 0.000000
vn -1.000000 0.000000 0.000000
vn -1.000000 0.000000 0.000000
vn -1.000000 0.000000 0.000000
vn 0.000000 -1.000000 0.000000
vn 0.000000 -1.000000 0.000000
vn 0.000000 -1.000000 0.000000
vn 0.000000 -1.000000 0.000000
vn 1.000000 0.000000 0.000000
vn 1.000000 0.000000 0.000000
vn 1.000000 0.000000 0.000000
vn 1.000000 0.000000 0.000000
vn -0.000000 1.000000 0.000000
vn 0.000000 1.000000 0.000000
vn 0.000000 1.000000 0.000000
vn 0.000000 1.000000 0.000000
vn -1.000000 0.000000 0.000000
vn -1.000000 0.000000 0.000000
vn -1.000000 0.000000 0.000000
vn -1.000000 0.000000 0.000000
vn 0.000000 0.000000 -1.000000
vn 0.000000 0.000000 -1.000000
vn 1.000000 0.000000 0.000000
vn 1.000000 0.000000 0.000000
vn 1.000000 0.000000 0.000000
vn 1.000000 0.000000 0.000000
vn 0.000000 0.000000 1.000000
vn 0.000000 0.000000 1.000000
vn 0.000000 1.000000 0.000000
vn -0.000000 1.000000 0.000000
vn -0.000000 1.000000 0.000000
vn 0.000000 1.000000 0.000000
vn 0.000000 0.000000 1.000000
vn 0.000000 0.000000 1.000000
vn 0.000000 0.000000 1.000000
vn 0.000000 0.000000 1.000000
vn 0.000000 0.000000 1.000000
vn 0.000000 0.000000 1.000000
vn 0.000000 -1.000000 0.000000
vn 0.000000 -1.000000 0.000000
vn 0.000000 -1.000000 0.000000
vn 0.000000 -1.000000 0.000000
vn -0.000000 -1.000000 0.000000
vn -0.000000 -1.000000 0.000000
vn -0.000000 -1.000000 0.000000
vn -0.000000 -1.000000 0.000000
vn 0.000000 0.000000 -1.000000
vn 0.000000 0.000000 -1.000000
vn 0.000000 0.000000 -1.000000
vn 0.000000 0.000000 -1.000000
vn 0.000000 0.000000 -1.000000
vn 0.000000 0.000000 -1.000000
vn 0.000000 1.000000 -0.000000
vn -0.000000 1.000000 -0.000000
vn -0.000000 1.000000 -0.000000
vn 0.000000 1.000000 -0.000000
vn 0.000001 -0.000000 1.000000
vn 0.000001 -0.000000 1.000000
vn 0.000001 -0.000000 1.000000
vn 0.000001 -0.000000 1.000000
vn 1.000000 0.000000 0.000000
vn 1.000000 0.000000 0.000000
vn 1.000000 0.000000 0.000000
vn 1.000000 0.000000 0.000000
vn 1.000000 0.000000 0.000000
vn 1.000000 0.000000 0.000000
vn 1.000000 0.000000 0.000000
vn 1.000000 0.000000 0.000000
vn 0.000000 0.000000 -1.000000
vn 0.000000 0.000000 -1.000000
vn 0.000000 0.000000 -1.000000
vn 0.000000 0.000000 -1.000000
vn -1.000000 0.000000 0.000000
vn -1.000000 0.000000 0.000000
vn -1.000000 0.000000 0.000000
vn -1.000000 0.000000 0.000000
vn 0.000000 0.000000 -1.000000
vn 0.000000 0.000000 -1.000000
vn 0.000000 0.000000 -1.000000
vn 0.000000 0.000000 -1.000000
vn -0.000000 -0.000000 1.000000
vn -0.000000 -0.000000 1.000000
vn -0.000000 -0.000000 1.000000
vn -0.000000 -0.000000 1.000000
vn -1.000000 0.000000 0.000000
vn -1.000000 0.000000 0.000000
vn -1.000000 0.000000 0.000000
vn -1.000000 0.000000 0.000000
vn 0.000000 -1.000000 0.000000
vn 0.000000 -1.000000 0.000000
vn 0.000000 -1.000000 0.000000
vn 0.000000 -1.000000 0.000000
vn 0.000000 -1.000000 0.000000
vn 0.000000 -1.000000 0.000000
vn 0.000000 -1.000000 0.000000
vn 0.000000 -1.000000 0.000000
vn 0.000000 -1.000000 0.000000
vn 0.000000 -1.000000 0.000000
vn 0.000000 -1.000000 0.000000
vn 0.000000 -1.000000 0.000000
vn 0.000000 -1.000000 0.000000
vn 0.000000 -1.000000 0.000000
vn 0.000000 -1.000000 0.000000
vn 0.000000 -1.000000 0.000000
vn 0.000000 -1.000000 0.000000
vn 0.000000 -1.000000 0.000000
s 1
g Table
usemtl initialShadingGroup
f 38/55/1 2/2/2 18/30/3 37/54/4
s 2
f 36/53/5 4/4/6 23/37/7 35/52/8
s 3
f 42/60/9 16/27/10 8/8/11 41/59/12
s off
f 39/57/13 21/34/14 2/10/15 38/56/16
s 4
f 2/2/17 21/35/18 22/36/19 18/30/20
s 5
f 20/32/21 1/1/22 13/23/23 19/31/24
f 7/13/25 10/17/26 14/24/27 15/25/28
s off
f 41/59/29 8/8/30 11/19/31 40/58/32
s 4
f 17/29/33 11/20/34 8/11/35 16/28/36
s 2
f 44/62/37 12/21/38 6/6/39 43/61/40
s 5
f 24/39/41 19/31/24 13/23/23 3/3/42
f 15/25/28 14/24/27 9/15/43 5/14/44
s 3
f 43/61/45 6/6/46 16/27/10 42/60/9
s 4
f 12/22/47 17/29/33 16/28/36 6/12/48
f 18/30/20 22/36/19 23/38/49 4/4/50
s 1
f 37/54/4 18/30/3 4/4/51 36/53/52
s 4
f 23/38/49 22/36/19 17/29/33 12/22/47
s 2
f 44/62/37 35/52/8 23/37/7 12/21/38
s 5
f 14/24/27 19/31/24 24/39/41 9/15/43
s 2
f 3/3/53 26/42/54 25/41/55 24/40/56
s 1
f 13/23/57 27/43/58 26/42/59 3/3/60
f 1/1/61 28/44/62 27/43/58 13/23/57
s off
f 20/33/63 29/46/64 28/45/65 1/9/66
f 7/7/67 31/48/68 30/47/69 10/18/70
s 3
f 15/26/71 32/49/72 31/48/73 7/7/74
f 5/5/75 33/50/76 32/49/72 15/26/71
s 2
f 9/16/77 34/51/78 33/50/79 5/5/80
f 24/40/56 25/41/55 34/51/78 9/16/77
f 26/42/54 36/53/5 35/52/8 25/41/55
s 1
f 27/43/58 37/54/4 36/53/52 26/42/59
s 3
f 33/50/76 43/61/45 42/60/9 32/49/72
s 2
f 34/51/78 44/62/37 43/61/40 33/50/79
f 34/51/78 25/41/55 35/52/8 44/62/37
s off
f 14/63/81 10/64/82 30/65/83 45/66/84
f 31/67/85 32/68/86 45/69/87 30/70/88
f 27/71/89 28/72/90 29/73/91 46/74/92
f 20/75/93 19/76/94 46/77/95 29/78/96
f 38/79/97 37/80/98 47/81/99 39/82/100
f 22/83/101 21/84/102 39/85/103 47/86/104
f 11/87/105 17/88/106 48/89/107 40/90/108
f 42/91/109 41/92/110 40/93/111 48/94/112
f 32/95/113 42/96/114 48/97/115 45/98/116
s 10
f 37/99/117 27/100/118 46/101/119 47/102/120
s off
f 19/103/121 14/104/122 45/105/123 46/106/124
f 17/107/125 22/108/126 47/109/127 48/110/128
s 10
f 47/111/120 46/112/119 45/113/129 48/114/130
