# This file uses centimeters as units for non-parametric coordinates.

mtllib Prop_tv_model_Blockout.mtl
g default
v -24.392487 2.285500 19.993837
v 24.392487 2.285500 19.993837
v -24.392487 46.063984 19.993837
v 24.392487 46.063984 19.993837
v -17.750687 34.525791 -19.993834
v 17.750687 34.525791 -19.993834
v -17.750687 2.308388 -19.993834
v 17.750687 2.308388 -19.993834
v -24.392487 46.063984 13.626635
v -24.392487 2.285500 13.626635
v 24.392487 2.285500 13.626635
v 24.392487 46.063984 13.626635
v -17.874207 0.097046 9.961747
v 17.874207 0.097046 9.961748
v 17.874207 0.096104 14.641573
v -17.874207 0.096104 14.641573
v -13.007263 0.101990 -14.686083
v 13.007263 0.101990 -14.686083
v -15.128204 1.082916 -17.061285
v -20.788757 1.080696 11.601130
v -20.788757 1.080696 17.036676
v 20.788757 1.080696 17.036676
v 20.788757 1.080696 11.601130
v 15.128204 1.082916 -17.061285
v -18.180496 3.659458 -20.477961
v -24.983124 3.657085 13.956583
v -24.983124 3.657085 20.477961
v 24.983124 3.657085 20.477961
v 24.983124 3.657085 13.956583
v 18.180496 3.659458 -20.477961
v -21.861450 6.302937 20.246552
v 21.861450 6.302937 20.246552
v 21.344604 43.414341 20.225246
v -21.344604 43.414341 20.225246
v -21.861450 6.302357 19.242432
v 21.861450 6.302357 19.242432
v 21.344604 43.413761 19.221127
v -21.344604 43.413761 19.221127
v -17.257385 10.210228 19.734907
v 17.257385 10.210228 19.734907
v 16.849380 39.505894 19.718088
v -16.849380 39.505894 19.718088
vt 0.375000 0.000000
vt 0.625000 0.000000
vt 0.375000 0.250000
vt 0.625000 0.250000
vt 0.375000 0.500000
vt 0.625000 0.500000
vt 0.375000 0.750000
vt 0.625000 0.750000
vt 0.375000 1.000000
vt 0.625000 1.000000
vt 0.875000 0.000000
vt 0.875000 0.250000
vt 0.125000 0.000000
vt 0.125000 0.250000
vt 0.335193 0.250000
vt 0.375000 0.289807
vt 0.335193 0.000000
vt 0.375000 0.960193
vt 0.625000 0.960193
vt 0.664807 0.000000
vt 0.625000 0.289807
vt 0.664807 0.250000
vt 0.625000 0.960193
vt 0.625000 1.000000
vt 0.375000 1.000000
vt 0.375000 0.960193
vt 0.375000 0.750000
vt 0.625000 0.750000
vt 0.375000 0.750000
vt 0.375000 0.960193
vt 0.375000 1.000000
vt 0.625000 1.000000
vt 0.625000 0.960193
vt 0.625000 0.750000
vt 0.125000 0.008957
vt 0.375000 0.741043
vt 0.335193 0.008957
vt 0.375000 0.008957
vt 0.625000 0.008957
vt 0.664807 0.008957
vt 0.625000 0.741043
vt 0.875000 0.008957
vt 0.375000 0.008957
vt 0.625000 0.008957
vt 0.625000 0.250000
vt 0.375000 0.250000
vt 0.375000 0.008957
vt 0.625000 0.008957
vt 0.625000 0.250000
vt 0.375000 0.250000
vt 0.375000 0.008957
vt 0.625000 0.008957
vt 0.625000 0.250000
vt 0.375000 0.250000
vn -0.016512 -0.019913 0.999665
vn 0.016512 -0.019913 0.999665
vn 0.016290 0.020798 0.999651
vn -0.016290 0.020798 0.999651
vn 0.000000 1.000000 0.000000
vn 0.000000 1.000000 0.000000
vn 0.000000 1.000000 0.000000
vn 0.000000 1.000000 0.000000
vn 0.000000 0.015683 -0.999877
vn 0.000000 0.015683 -0.999877
vn 0.000000 0.015683 -0.999877
vn 0.000000 0.015683 -0.999877
vn 0.000000 -1.000000 -0.000201
vn 0.000000 -1.000000 -0.000201
vn 0.000000 -1.000000 -0.000201
vn 0.000000 -1.000000 -0.000201
vn 0.999903 0.013927 0.000000
vn 0.999903 0.013927 0.000000
vn 0.999903 0.013927 0.000000
vn 0.999903 0.013927 0.000000
vn -0.999903 0.013927 0.000000
vn -0.999903 0.013927 0.000000
vn -0.999903 0.013927 0.000000
vn -0.999903 0.013927 0.000000
vn -0.980487 0.014067 -0.196082
vn -0.980487 0.014067 -0.196082
vn -0.980487 0.014067 -0.196082
vn -0.980487 0.014067 -0.196082
vn 0.000000 -1.000000 -0.000201
vn 0.000000 -1.000000 -0.000201
vn 0.000000 -1.000000 -0.000201
vn 0.000000 -1.000000 -0.000201
vn 0.980487 0.014067 -0.196082
vn 0.980487 0.014067 -0.196082
vn 0.980487 0.014067 -0.196082
vn 0.980487 0.014067 -0.196082
vn 0.000000 0.945850 -0.324606
vn 0.000000 0.945850 -0.324606
vn 0.000000 0.945849 -0.324606
vn 0.000000 0.945849 -0.324606
vn 0.317071 -0.948402 0.000000
vn 0.317071 -0.948402 0.000000
vn 0.317071 -0.948402 0.000000
vn 0.317071 -0.948402 0.000000
vn 0.000000 -0.926089 0.377306
vn 0.000000 -0.926089 0.377306
vn 0.000000 -0.926089 0.377306
vn 0.000000 -0.926089 0.377306
vn -0.317071 -0.948402 0.000000
vn -0.317071 -0.948402 0.000000
vn -0.317071 -0.948402 0.000000
vn -0.317071 -0.948402 0.000000
vn 0.000000 -0.922677 -0.385574
vn 0.000000 -0.922677 -0.385574
vn 0.000000 -0.922677 -0.385574
vn 0.000000 -0.922677 -0.385574
vn 0.353814 -0.932673 -0.070263
vn 0.353814 -0.932673 -0.070263
vn 0.353814 -0.932673 -0.070263
vn 0.353814 -0.932673 -0.070263
vn -0.353814 -0.932673 -0.070263
vn -0.353814 -0.932673 -0.070263
vn -0.353814 -0.932673 -0.070263
vn -0.353814 -0.932673 -0.070263
vn -0.353682 -0.932745 -0.069969
vn -0.353682 -0.932745 -0.069969
vn -0.353682 -0.932745 -0.069969
vn -0.353682 -0.932745 -0.069969
vn -0.319968 -0.947429 -0.000088
vn -0.319968 -0.947428 -0.000088
vn -0.319968 -0.947429 -0.000088
vn -0.319968 -0.947428 -0.000088
vn 0.000000 -0.924899 0.380213
vn 0.000000 -0.924899 0.380213
vn 0.000000 -0.924899 0.380213
vn 0.000000 -0.924899 0.380213
vn 0.319968 -0.947428 -0.000088
vn 0.319968 -0.947428 -0.000088
vn 0.319968 -0.947428 -0.000088
vn 0.319968 -0.947429 -0.000088
vn 0.353682 -0.932745 -0.069969
vn 0.353682 -0.932745 -0.069969
vn 0.353682 -0.932745 -0.069969
vn 0.353682 -0.932745 -0.069969
vn 0.000000 -0.924280 -0.381715
vn 0.000000 -0.924280 -0.381715
vn 0.000000 -0.924280 -0.381715
vn 0.000000 -0.924280 -0.381715
vn -0.917441 -0.354127 -0.181374
vn -0.917441 -0.354127 -0.181374
vn -0.917441 -0.354127 -0.181374
vn -0.917441 -0.354127 -0.181374
vn -0.918461 -0.395511 0.000000
vn -0.918461 -0.395511 0.000000
vn -0.918461 -0.395511 0.000000
vn -0.918461 -0.395511 0.000000
vn 0.000000 -0.332841 0.942983
vn 0.000000 -0.332841 0.942983
vn 0.000000 -0.332841 0.942983
vn 0.000000 -0.332841 0.942983
vn 0.918461 -0.395511 0.000000
vn 0.918461 -0.395511 0.000000
vn 0.918461 -0.395511 0.000000
vn 0.918461 -0.395511 0.000000
vn 0.917441 -0.354127 -0.181374
vn 0.917441 -0.354127 -0.181374
vn 0.917441 -0.354127 -0.181374
vn 0.917441 -0.354127 -0.181374
vn 0.000000 -0.337326 -0.941388
vn 0.000000 -0.337326 -0.941388
vn 0.000000 -0.337326 -0.941388
vn 0.000000 -0.337326 -0.941388
vn 0.000000 0.087129 0.996197
vn 0.000000 0.087129 0.996197
vn 0.000000 0.087128 0.996197
vn 0.000000 0.087128 0.996197
vn -0.000004 0.006356 0.999980
vn -0.000004 0.006356 0.999980
vn -0.000004 0.006356 0.999980
vn -0.000004 0.006356 0.999980
vn 0.000000 0.087005 0.996208
vn 0.000000 0.087005 0.996208
vn 0.000000 0.087005 0.996208
vn 0.000000 0.087005 0.996208
vn 0.000004 0.006356 0.999980
vn 0.000004 0.006356 0.999980
vn 0.000004 0.006356 0.999980
vn 0.000004 0.006356 0.999980
vn 0.000000 1.000000 -0.000578
vn 0.000000 1.000000 -0.000578
vn 0.000000 1.000000 -0.000578
vn 0.000000 1.000000 -0.000578
vn -0.999903 -0.013926 0.000008
vn -0.999903 -0.013926 0.000008
vn -0.999903 -0.013926 0.000008
vn -0.999903 -0.013926 0.000008
vn 0.000000 -1.000000 0.000578
vn 0.000000 -1.000000 0.000578
vn 0.000000 -1.000000 0.000578
vn 0.000000 -1.000000 0.000578
vn 0.999903 -0.013926 0.000008
vn 0.999903 -0.013926 0.000008
vn 0.999903 -0.013926 0.000008
vn 0.999903 -0.013926 0.000008
vn -0.059010 -0.056080 0.996681
vn 0.059010 -0.056080 0.996681
vn 0.059690 0.058066 0.996527
vn -0.059690 0.058066 0.996527
s 1
g tv
usemtl initialShadingGroup
f 39/51/1 40/52/2 41/53/3 42/54/4
s off
f 3/3/5 4/4/6 12/21/7 9/16/8
f 5/5/9 6/6/10 30/41/11 25/36/12
f 13/26/13 14/23/14 15/24/15 16/25/16
f 28/39/17 29/40/18 12/22/19 4/4/20
f 26/37/21 27/38/22 3/3/23 9/15/24
f 25/35/25 26/37/26 9/15/27 5/14/28
f 17/27/29 18/28/30 14/23/31 13/26/32
f 12/22/33 29/40/34 30/42/35 6/12/36
f 9/16/37 12/21/38 6/6/39 5/5/40
f 11/19/41 2/10/42 22/32/43 23/33/44
f 2/10/45 1/9/46 21/31/47 22/32/48
f 1/9/49 10/18/50 20/30/51 21/31/52
f 7/7/53 8/8/54 24/34/55 19/29/56
f 8/8/57 11/19/58 23/33/59 24/34/60
f 10/18/61 7/7/62 19/29/63 20/30/64
f 20/30/65 19/29/66 17/27/67 13/26/68
f 21/31/69 20/30/70 13/26/71 16/25/72
f 22/32/73 21/31/74 16/25/75 15/24/76
f 23/33/77 22/32/78 15/24/79 14/23/80
f 24/34/81 23/33/82 14/23/83 18/28/84
f 19/29/85 24/34/86 18/28/87 17/27/88
f 7/13/89 10/17/90 26/37/91 25/35/92
f 10/17/93 1/1/94 27/38/95 26/37/96
f 1/1/97 2/2/98 28/39/99 27/38/100
f 2/2/101 11/20/102 29/40/103 28/39/104
f 30/42/105 29/40/106 11/20/107 8/11/108
f 25/36/109 30/41/110 8/8/111 7/7/112
f 27/38/113 28/39/114 32/44/115 31/43/116
f 28/39/117 4/4/118 33/45/119 32/44/120
f 4/4/121 3/3/122 34/46/123 33/45/124
f 3/3/125 27/38/126 31/43/127 34/46/128
f 31/43/129 32/44/130 36/48/131 35/47/132
f 32/44/133 33/45/134 37/49/135 36/48/136
f 33/45/137 34/46/138 38/50/139 37/49/140
f 34/46/141 31/43/142 35/47/143 38/50/144
s 1
f 35/47/145 36/48/146 40/52/2 39/51/1
f 36/48/146 37/49/147 41/53/3 40/52/2
f 37/49/147 38/50/148 42/54/4 41/53/3
f 38/50/148 35/47/145 39/51/1 42/54/4
