# This file uses centimeters as units for non-parametric coordinates.

mtllib Prop_book_model_Blockout.mtl
g default
v -9.000000 0.005833 7.000000
v 9.000000 0.005833 7.000000
v -9.000000 2.005833 7.000000
v 9.000000 2.005833 7.000000
v -9.000000 2.005833 -7.000000
v 9.000000 2.005833 -7.000000
v -9.000000 0.005833 -7.000000
v 9.000000 0.005833 -7.000000
v -9.000000 1.505833 -7.000000
v -8.706173 1.505833 6.718957
v 8.706173 1.505833 6.718957
v 9.000000 1.505833 -7.000000
v -9.000000 0.505833 -7.000000
v -8.706173 0.505833 6.718957
v 8.706173 0.505833 6.718957
v 9.000000 0.505833 -7.000000
v -9.000000 1.568373 7.000000
v -9.000000 1.568373 -7.000000
v 9.000000 1.568373 -7.000000
v 9.000000 1.568373 7.000000
v -9.000000 0.443292 7.000000
v -9.000000 0.443292 -7.000000
v 9.000000 0.443292 -7.000000
v 9.000000 0.443292 7.000000
v 9.000000 0.005833 -6.716383
v -9.000000 0.005833 -6.716383
v -9.000000 0.443292 -6.716383
v -8.706173 0.505833 -6.716383
v -8.706173 1.505833 -6.716383
v -9.000000 1.568373 -6.716383
v -9.000000 2.005833 -6.716383
v 9.000000 2.005833 -6.716383
v 9.000000 1.568373 -6.716383
v 8.706173 1.505833 -6.716383
v 8.706173 0.505833 -6.716383
v 9.000000 0.443292 -6.716383
v -9.000000 1.505833 -6.784094
v -9.000000 1.568373 -6.784094
v -9.000000 2.005833 -6.784094
v 9.000000 2.005833 -6.784094
v 9.000000 1.568373 -6.784094
v 9.000000 1.505833 -6.784094
v 9.000000 0.505833 -6.784094
v 9.000000 0.443292 -6.784094
v 9.000000 0.005833 -6.784094
v -9.000000 0.005833 -6.784094
v -9.000000 0.443292 -6.784094
v -9.000000 0.505833 -6.784094
vt 0.375000 0.000000
vt 0.625000 0.000000
vt 0.375000 0.250000
vt 0.625000 0.250000
vt 0.375000 0.500000
vt 0.625000 0.500000
vt 0.375000 0.750000
vt 0.625000 0.750000
vt 0.375000 1.000000
vt 0.625000 1.000000
vt 0.875000 0.000000
vt 0.875000 0.250000
vt 0.125000 0.000000
vt 0.125000 0.250000
vt 0.125000 0.187500
vt 0.375000 0.562500
vt 0.375000 0.187500
vt 0.625000 0.187500
vt 0.625000 0.562500
vt 0.875000 0.187500
vt 0.125000 0.062500
vt 0.375000 0.687500
vt 0.375000 0.062500
vt 0.625000 0.062500
vt 0.625000 0.687500
vt 0.875000 0.062500
vt 0.375000 0.218750
vt 0.125000 0.218750
vt 0.375000 0.531250
vt 0.625000 0.531250
vt 0.875000 0.218750
vt 0.625000 0.218750
vt 0.375000 0.031250
vt 0.125000 0.031250
vt 0.375000 0.718750
vt 0.625000 0.718750
vt 0.875000 0.031250
vt 0.625000 0.031250
vt 0.625000 0.875000
vt 0.750000 0.000000
vt 0.250000 0.000000
vt 0.375000 0.875000
vt 0.250000 0.031250
vt 0.250000 0.062500
vt 0.250000 0.187500
vt 0.250000 0.218750
vt 0.250000 0.250000
vt 0.375000 0.375000
vt 0.625000 0.375000
vt 0.750000 0.250000
vt 0.750000 0.218750
vt 0.750000 0.187500
vt 0.750000 0.062500
vt 0.750000 0.031250
vt 0.187500 0.187500
vt 0.187500 0.218750
vt 0.187500 0.250000
vt 0.375000 0.437500
vt 0.625000 0.437500
vt 0.812500 0.250000
vt 0.812500 0.218750
vt 0.812500 0.187500
vt 0.812500 0.062500
vt 0.812500 0.031250
vt 0.625000 0.812500
vt 0.812500 0.000000
vt 0.187500 0.000000
vt 0.375000 0.812500
vt 0.187500 0.031250
vt 0.187500 0.062500
vn 0.000000 -0.976123 0.217217
vn 0.000000 -0.976123 0.217217
vn 0.000000 -0.976123 0.217217
vn 0.000000 -0.976123 0.217217
vn 0.000000 1.000000 0.000000
vn 0.000000 1.000000 0.000000
vn 0.000000 1.000000 0.000000
vn 0.000000 1.000000 0.000000
vn 0.000000 0.000000 -1.000000
vn 0.000000 0.000000 -1.000000
vn 0.000000 0.000000 -1.000000
vn 0.000000 0.000000 -1.000000
vn 0.000000 -1.000000 0.000000
vn 0.000000 -1.000000 0.000000
vn 0.000000 -1.000000 0.000000
vn 0.000000 -1.000000 0.000000
vn 1.000000 0.000000 0.000000
vn 1.000000 0.000000 0.000000
vn 1.000000 0.000000 0.000000
vn 1.000000 0.000000 0.000000
vn -1.000000 0.000000 0.000000
vn -1.000000 0.000000 0.000000
vn -1.000000 0.000000 0.000000
vn -1.000000 0.000000 0.000000
vn -1.000000 0.000000 0.000000
vn -1.000000 0.000000 0.000000
vn 0.000000 0.000000 1.000000
vn 0.000000 0.000000 1.000000
vn 0.000000 0.000000 1.000000
vn 0.000000 0.000000 1.000000
vn 1.000000 0.000000 0.000000
vn 1.000000 0.000000 0.000000
vn 0.000000 0.000000 -1.000000
vn 0.000000 0.000000 -1.000000
vn -1.000000 0.000000 0.000000
vn -1.000000 0.000000 0.000000
vn -1.000000 0.000000 0.000000
vn -1.000000 0.000000 0.000000
vn 0.000000 0.000000 1.000000
vn 0.000000 0.000000 1.000000
vn 0.000000 0.000000 1.000000
vn 0.000000 0.000000 1.000000
vn 1.000000 0.000000 0.000000
vn 1.000000 0.000000 0.000000
vn 1.000000 0.000000 0.000000
vn 1.000000 0.000000 0.000000
vn 0.000000 0.000000 -1.000000
vn 0.000000 0.000000 -1.000000
vn 0.000000 0.000000 -1.000000
vn 0.000000 0.000000 -1.000000
vn -1.000000 0.000000 0.000000
vn -1.000000 0.000000 0.000000
vn 0.000000 0.000000 -1.000000
vn 0.000000 0.000000 -1.000000
vn 1.000000 0.000000 0.000000
vn 1.000000 0.000000 0.000000
vn 0.000000 0.000000 1.000000
vn 0.000000 0.000000 1.000000
vn 0.000000 0.000000 1.000000
vn 0.000000 0.000000 1.000000
vn 0.000000 0.976123 0.217217
vn 0.000000 0.976123 0.217217
vn 0.000000 0.976123 0.217217
vn 0.000000 0.976123 0.217217
vn 0.000000 -1.000000 0.000000
vn 0.000000 -1.000000 0.000000
vn 0.000000 -1.000000 0.000000
vn 0.000000 -1.000000 0.000000
vn -1.000000 0.000000 0.000000
vn -1.000000 0.000000 0.000000
vn -1.000000 0.000000 0.000000
vn -1.000000 0.000000 0.000000
vn -0.208184 0.978090 0.000000
vn -0.208184 0.978090 0.000000
vn -0.208184 0.978090 0.000000
vn -0.208184 0.978090 0.000000
vn -1.000000 0.000000 0.000000
vn -1.000000 0.000000 0.000000
vn -1.000000 0.000000 0.000000
vn -1.000000 0.000000 0.000000
vn -0.208184 -0.978090 0.000000
vn -0.208184 -0.978090 0.000000
vn -0.208184 -0.978090 0.000000
vn -0.208184 -0.978090 0.000000
vn -1.000000 0.000000 0.000000
vn -1.000000 0.000000 0.000000
vn -1.000000 0.000000 0.000000
vn -1.000000 0.000000 0.000000
vn 0.000000 1.000000 0.000000
vn 0.000000 1.000000 0.000000
vn 0.000000 1.000000 0.000000
vn 0.000000 1.000000 0.000000
vn 1.000000 0.000000 0.000000
vn 1.000000 0.000000 0.000000
vn 1.000000 0.000000 0.000000
vn 1.000000 0.000000 0.000000
vn 0.208184 -0.978090 0.000000
vn 0.208184 -0.978090 0.000000
vn 0.208184 -0.978090 0.000000
vn 0.208184 -0.978090 0.000000
vn 1.000000 0.000000 0.000000
vn 1.000000 0.000000 0.000000
vn 1.000000 0.000000 0.000000
vn 1.000000 0.000000 0.000000
vn 0.208184 0.978090 0.000000
vn 0.208184 0.978090 0.000000
vn 0.208184 0.978090 0.000000
vn 0.208184 0.978090 0.000000
vn 1.000000 0.000000 0.000000
vn 1.000000 0.000000 0.000000
vn 1.000000 0.000000 0.000000
vn 1.000000 0.000000 0.000000
vn -0.298463 -0.701117 0.647576
vn -0.298463 -0.701117 0.647576
vn -0.298463 -0.701117 0.647576
vn -0.298463 -0.701117 0.647576
vn 0.298463 -0.701117 0.647576
vn 0.298463 -0.701117 0.647576
vn 0.298463 -0.701117 0.647576
vn 0.298463 -0.701117 0.647576
vn 0.224561 0.000000 0.974460
vn 0.224561 0.000000 0.974460
vn 0.224561 0.000000 0.974460
vn 0.224561 0.000000 0.974460
vn 0.298463 0.701117 0.647576
vn 0.298463 0.701117 0.647576
vn 0.298463 0.701117 0.647576
vn 0.298463 0.701117 0.647576
vn -0.298463 0.701117 0.647576
vn -0.298463 0.701117 0.647576
vn -0.298463 0.701117 0.647576
vn -0.298463 0.701117 0.647576
vn -0.224561 0.000000 0.974460
vn -0.224561 0.000000 0.974460
vn -0.224561 0.000000 0.974460
vn -0.224561 0.000000 0.974460
s off
g Book
usemtl initialShadingGroup
f 10/17/1 11/18/2 20/32/3 17/27/4
s 1
f 39/58/5 40/59/6 6/6/7 5/5/8
s 2
f 18/29/9 19/30/10 12/19/11 9/16/12
s 3
f 7/7/13 8/8/14 45/65/15 46/68/16
s 4
f 42/62/17 12/20/18 19/31/19 41/61/20
s 5
f 9/15/21 37/55/22 38/56/23 18/28/24
f 48/70/25 37/55/22 9/15/21 13/21/26
s off
f 11/18/27 10/17/28 14/23/29 15/24/30
s 4
f 16/26/31 12/20/18 42/62/17 43/63/32
s 2
f 13/22/33 9/16/12 12/19/11 16/25/34
s 5
f 7/13/35 46/67/36 47/69/37 22/34/38
s off
f 1/1/39 2/2/40 24/38/41 21/33/42
s 4
f 44/64/43 45/66/44 8/11/45 23/37/46
s 2
f 22/35/47 23/36/48 8/8/49 7/7/50
s 5
f 18/28/24 38/56/23 39/57/51 5/14/52
s 2
f 5/5/53 6/6/54 19/30/10 18/29/9
s 4
f 41/61/20 19/31/19 6/12/55 40/60/56
s off
f 17/27/57 20/32/58 4/4/59 3/3/60
s 5
f 22/34/38 47/69/37 48/70/25 13/21/26
s 2
f 13/22/33 16/25/34 23/36/48 22/35/47
s 4
f 44/64/43 23/37/46 16/26/31 43/63/32
s off
f 21/33/61 24/38/62 15/24/63 14/23/64
s 3
f 26/42/65 25/39/66 2/10/67 1/9/68
s 5
f 27/43/69 26/41/70 1/1/71 21/33/72
s off
f 28/44/73 27/43/74 21/33/75 14/23/76
f 10/17/77 29/45/78 28/44/79 14/23/80
f 30/46/81 29/45/82 10/17/83 17/27/84
s 5
f 31/47/85 30/46/86 17/27/87 3/3/88
s 1
f 3/3/89 4/4/90 32/49/91 31/48/92
s 4
f 20/32/93 33/51/94 32/50/95 4/4/96
s off
f 11/18/97 34/52/98 33/51/99 20/32/100
f 35/53/101 34/52/102 11/18/103 15/24/104
f 24/38/105 36/54/106 35/53/107 15/24/108
s 4
f 2/2/109 25/40/110 36/54/111 24/38/112
s off
f 37/55/113 29/45/114 30/46/115 38/56/116
s 5
f 39/57/51 38/56/23 30/46/86 31/47/85
s 1
f 31/48/92 32/49/91 40/59/6 39/58/5
s 4
f 33/51/94 41/61/20 40/60/56 32/50/95
s off
f 34/52/117 42/62/118 41/61/119 33/51/120
f 43/63/121 42/62/122 34/52/123 35/53/124
f 36/54/125 44/64/126 43/63/127 35/53/128
s 4
f 36/54/111 25/40/110 45/66/44 44/64/43
s 3
f 46/68/16 45/65/15 25/39/66 26/42/65
s 5
f 47/69/37 46/67/36 26/41/70 27/43/69
s off
f 48/70/129 47/69/130 27/43/131 28/44/132
f 29/45/133 37/55/134 48/70/135 28/44/136
